<svg id="Layer_1" data-name="Layer 1" xmlns="http://www.w3.org/2000/svg" xmlns:xlink="http://www.w3.org/1999/xlink" viewBox="0 0 540.77 346.12"><defs><style>.cls-1{fill:url(#linear-gradient);}</style><linearGradient id="linear-gradient" x1="1.94" y1="595.65" x2="1.03" y2="595.53" gradientTransform="matrix(540.83, -37.86, -24.02, -343.11, 13781.39, 204589.99)" gradientUnits="userSpaceOnUse"><stop offset="0" stop-color="#007bff"/><stop offset="1" stop-color="#fff"/></linearGradient></defs><path id="Path_381-2" data-name="Path 381-2" class="cls-1" d="M517,136a66,66,0,0,0-8.6-6.06A85.87,85.87,0,0,0,401.13,39.28,86,86,0,0,0,246.86,60.52,19.21,19.21,0,0,1,228.77,74a114.5,114.5,0,0,0-37.09,6.85A95.14,95.14,0,0,0,96.5,126.31,38,38,0,0,1,68.19,144.9a76.42,76.42,0,1,0,16.48,152c1.91-.21,3.82-.49,5.71-.84a39.05,39.05,0,0,1,35.67,11.53,66.51,66.51,0,0,0,101.12-4.31,37.59,37.59,0,0,1,29.68,16.82,57.29,57.29,0,0,0,105-25.72A66.47,66.47,0,0,0,434,273a29.58,29.58,0,0,0,3.23-3c.24-.26.48-.53.71-.81A42.48,42.48,0,0,1,471.75,254,66.88,66.88,0,0,0,517,136Z"/></svg>