<?xml version="1.0" encoding="utf-8"?>
<!-- Generator: Adobe Illustrator 25.4.1, SVG Export Plug-In . SVG Version: 6.00 Build 0)  -->
<svg version="1.1" id="Layer_1" xmlns="http://www.w3.org/2000/svg" xmlns:xlink="http://www.w3.org/1999/xlink" x="0px" y="0px"
	 viewBox="0 0 540.8 346.1" style="enable-background:new 0 0 540.8 346.1;" xml:space="preserve">
<style type="text/css">
	.st0{fill:url(#Path_599-2_00000008134887491065384570000014989626634692219057_);}
</style>
<g transform="matrix(1, 0, 0, 1, 0, 0)">
	
		<linearGradient id="Path_599-2_00000070097238382454894900000010834413563209500804_" gradientUnits="userSpaceOnUse" x1="2.0039" y1="595.3577" x2="1.1029" y2="595.4816" gradientTransform="matrix(-540.8268 -37.8579 -24.0179 343.1129 15401.9541 -204058.6094)">
		<stop  offset="0" style="stop-color:#FFFFFF"/>
		<stop  offset="1" style="stop-color:#6F42C1"/>
	</linearGradient>
	<path id="Path_599-2" style="fill:url(#Path_599-2_00000070097238382454894900000010834413563209500804_);" d="M23.8,136
		c2.7-2.2,5.6-4.3,8.6-6.1c-4.2-47.2,30.8-88.9,78-93.1c9.8-0.9,19.7,0,29.2,2.4c25.8-39.9,79-51.3,118.8-25.5
		c16.9,10.9,29.5,27.5,35.4,46.7c2.5,7.9,9.8,13.4,18.1,13.5c12.7,0.2,25.2,2.5,37.1,6.9c38-5.4,75.5,12.5,95.2,45.4
		c6,10.3,16.5,17.2,28.3,18.6c42,4.5,72.3,42.3,67.7,84.2s-42.3,72.3-84.2,67.7c-1.9-0.2-3.8-0.5-5.7-0.8
		c-13.1-2.5-26.5,1.9-35.7,11.5c-25.1,26.9-67.2,28.4-94.1,3.4c-2.5-2.4-4.9-4.9-7-7.7c-12,0.5-23,6.8-29.7,16.8
		c-17.2,26.5-52.7,34-79.3,16.8c-14.6-9.5-24.1-25.2-25.8-42.5c-26.1,8.5-54.8,0-72.1-21.3c-1.2-0.9-2.2-1.9-3.2-3
		c-0.2-0.3-0.5-0.5-0.7-0.8C94.5,259.2,82,253.6,69,254c-36.9,1.2-67.8-27.8-69-64.7C-0.6,168.8,8.1,149.2,23.8,136L23.8,136z"/>
</g>
</svg>
