<svg id="Layer_1" data-name="Layer 1" xmlns="http://www.w3.org/2000/svg" viewBox="0 0 116.64 28.14"><defs><style>.cls-1{fill:#fff;}</style></defs><circle id="Ellipse_9" data-name="Ellipse 9" class="cls-1" cx="14.48" cy="14.07" r="2.94"/><circle id="Ellipse_10" data-name="Ellipse 10" class="cls-1" cx="6.43" cy="14.07" r="2.94"/><path class="cls-1" d="M22.91,11.09a11.65,11.65,0,1,0,0,6,3,3,0,0,0,0-6ZM11.65,24.55a10.48,10.48,0,1,1,10-13.44,3,3,0,0,0,0,5.92A10.5,10.5,0,0,1,11.65,24.55Zm11.53-8.8a1.85,1.85,0,0,1-.81.18,1.75,1.75,0,0,1-.4,0,1.86,1.86,0,0,1,0-3.64,1.75,1.75,0,0,1,.4,0,1.85,1.85,0,0,1,1.86,1.86A1.88,1.88,0,0,1,23.18,15.75Z"/><path class="cls-1" d="M33.86,17.64a.4.4,0,0,1-.46-.46V11a.4.4,0,0,1,.46-.46h3.76a.35.35,0,1,1,0,.7H34.21v2.47h3.2c.24,0,.35.11.35.34s-.11.36-.35.36h-3.2v2.57h3.41c.24,0,.36.11.36.34a.32.32,0,0,1-.36.36Z"/><path class="cls-1" d="M41,17.73a2.14,2.14,0,0,1-1.14-.31,2.08,2.08,0,0,1-.76-.89,3.13,3.13,0,0,1-.27-1.35,3.14,3.14,0,0,1,.27-1.36,2,2,0,0,1,.76-.88A2.05,2.05,0,0,1,41,12.63a2,2,0,0,1,1,.25,1.59,1.59,0,0,1,.66.7V10.85c0-.28.13-.42.41-.42a.37.37,0,0,1,.41.42v6.43c0,.29-.14.43-.41.43s-.4-.14-.4-.43v-.52a1.64,1.64,0,0,1-.67.71A2,2,0,0,1,41,17.73Zm.18-.66a1.36,1.36,0,0,0,1.1-.49,2.09,2.09,0,0,0,.42-1.4,2.1,2.1,0,0,0-.42-1.41,1.51,1.51,0,0,0-2.21,0,2.1,2.1,0,0,0-.41,1.41,2.09,2.09,0,0,0,.41,1.4A1.35,1.35,0,0,0,41.2,17.07Z"/><path class="cls-1" d="M46.76,17.71a.52.52,0,0,1-.52-.39l-1.51-4.1a.41.41,0,0,1,0-.42.45.45,0,0,1,.58-.08.47.47,0,0,1,.16.26l1.3,3.7L48.11,13a.45.45,0,0,1,.46-.33A.44.44,0,0,1,49,13l1.32,3.71L51.65,13a.54.54,0,0,1,.16-.25.49.49,0,0,1,.25-.06.3.3,0,0,1,.31.17.51.51,0,0,1,0,.4l-1.5,4.1a.54.54,0,0,1-.52.39.51.51,0,0,1-.51-.39l-1.27-3.5-1.28,3.5A.52.52,0,0,1,46.76,17.71Z"/><path class="cls-1" d="M54,11.53c-.35,0-.53-.17-.53-.5s.18-.5.53-.5.54.17.54.5S54.33,11.53,54,11.53Zm0,6.16c-.27,0-.4-.15-.4-.45V13.1c0-.29.13-.43.4-.43a.37.37,0,0,1,.42.43v4.14Q54.39,17.69,54,17.69Z"/><path class="cls-1" d="M56.32,17.71c-.27,0-.4-.14-.4-.43V13.06c0-.27.13-.41.39-.41a.37.37,0,0,1,.41.41v.5a1.61,1.61,0,0,1,.69-.7,2,2,0,0,1,1-.23c1.17,0,1.75.64,1.75,1.94v2.71c0,.29-.14.43-.41.43s-.41-.14-.41-.43V14.62a1.56,1.56,0,0,0-.27-1,1.05,1.05,0,0,0-.85-.31,1.4,1.4,0,0,0-1.08.42,1.53,1.53,0,0,0-.4,1.11v2.45A.37.37,0,0,1,56.32,17.71Z"/><path class="cls-1" d="M67.48,17.73a3.44,3.44,0,0,1-1.8-.45A2.82,2.82,0,0,1,64.53,16a4.4,4.4,0,0,1-.4-2,4.37,4.37,0,0,1,.4-1.94,2.82,2.82,0,0,1,1.15-1.26,3.44,3.44,0,0,1,1.8-.45,3.85,3.85,0,0,1,1.19.18,3.11,3.11,0,0,1,1,.52.42.42,0,0,1,.14.57.38.38,0,0,1-.23.16.4.4,0,0,1-.33-.09,2.67,2.67,0,0,0-1.74-.58,2.25,2.25,0,0,0-1.84.76A3.19,3.19,0,0,0,65,14.06a3.23,3.23,0,0,0,.64,2.15A2.25,2.25,0,0,0,67.5,17a2.75,2.75,0,0,0,1.76-.59.44.44,0,0,1,.33-.09.32.32,0,0,1,.22.15.45.45,0,0,1,.06.28.41.41,0,0,1-.17.27,3,3,0,0,1-1,.55A3.65,3.65,0,0,1,67.48,17.73Z"/><path class="cls-1" d="M72.78,17.73a2.48,2.48,0,0,1-1.24-.31,2.21,2.21,0,0,1-.82-.89,3,3,0,0,1-.28-1.35,3,3,0,0,1,.28-1.35,2.21,2.21,0,0,1,.82-.89,2.38,2.38,0,0,1,1.24-.31,2.42,2.42,0,0,1,1.25.31,2.21,2.21,0,0,1,.82.89,3,3,0,0,1,.28,1.35,3,3,0,0,1-.28,1.35,2.21,2.21,0,0,1-.82.89A2.52,2.52,0,0,1,72.78,17.73Zm0-.66a1.38,1.38,0,0,0,1.11-.49,2.09,2.09,0,0,0,.41-1.4,2.1,2.1,0,0,0-.41-1.41,1.4,1.4,0,0,0-1.11-.48,1.37,1.37,0,0,0-1.1.48,2.1,2.1,0,0,0-.41,1.41,2.09,2.09,0,0,0,.41,1.4A1.35,1.35,0,0,0,72.78,17.07Z"/><path class="cls-1" d="M76.78,17.71c-.27,0-.41-.14-.41-.43V13.06c0-.27.13-.41.39-.41a.37.37,0,0,1,.41.41v.54a1.41,1.41,0,0,1,.63-.71,2,2,0,0,1,1-.27c.21,0,.33.08.34.32s-.1.37-.36.4l-.16,0a1.6,1.6,0,0,0-1.07.44,1.44,1.44,0,0,0-.36,1v2.45A.37.37,0,0,1,76.78,17.71Z"/><path class="cls-1" d="M80.4,17.71c-.27,0-.41-.14-.41-.43V13.06a.4.4,0,1,1,.8,0v.5a1.66,1.66,0,0,1,.69-.7,2.08,2.08,0,0,1,1-.23c1.17,0,1.76.64,1.76,1.94v2.71c0,.29-.14.43-.41.43s-.41-.14-.41-.43V14.62a1.56,1.56,0,0,0-.27-1,1.08,1.08,0,0,0-.86-.31,1.43,1.43,0,0,0-1.08.42,1.57,1.57,0,0,0-.4,1.11v2.45C80.81,17.57,80.68,17.71,80.4,17.71Z"/><path class="cls-1" d="M88,17.73a2.5,2.5,0,0,1-1.84-.68,2.55,2.55,0,0,1-.68-1.86,2.88,2.88,0,0,1,.3-1.34,2.22,2.22,0,0,1,.84-.9,2.26,2.26,0,0,1,1.23-.32,2,2,0,0,1,1.57.64A2.58,2.58,0,0,1,90,15c0,.21-.12.31-.36.31H86.24a1.85,1.85,0,0,0,.49,1.28,1.67,1.67,0,0,0,1.23.44,3.23,3.23,0,0,0,.68-.08,2.13,2.13,0,0,0,.67-.31.37.37,0,0,1,.39-.06.3.3,0,0,1,.16.27.39.39,0,0,1-.21.33,2.42,2.42,0,0,1-.79.38A3.21,3.21,0,0,1,88,17.73Zm-.13-4.5a1.42,1.42,0,0,0-1.1.44,1.92,1.92,0,0,0-.48,1.14h3a1.83,1.83,0,0,0-.39-1.16A1.27,1.27,0,0,0,87.83,13.23Z"/><path class="cls-1" d="M92.63,17.73a1.42,1.42,0,0,1-1.12-.44A1.92,1.92,0,0,1,91.13,16V10.85a.41.41,0,1,1,.82,0V16c0,.72.29,1.08.86,1.08h.3a.16.16,0,0,1,.16,0,.43.43,0,0,1,0,.24.37.37,0,0,1-.35.4l-.17,0Z"/><path class="cls-1" d="M94.53,11.53c-.36,0-.53-.17-.53-.5s.17-.5.53-.5.54.17.54.5S94.89,11.53,94.53,11.53Zm0,6.16c-.27,0-.4-.15-.4-.45V13.1c0-.29.13-.43.4-.43a.37.37,0,0,1,.42.43v4.14Q95,17.69,94.53,17.69Z"/><path class="cls-1" d="M98.14,17.73a3.63,3.63,0,0,1-.92-.12,2.55,2.55,0,0,1-.86-.38.29.29,0,0,1-.17-.28.34.34,0,0,1,.13-.28.3.3,0,0,1,.34,0,2.64,2.64,0,0,0,1.5.43,1.51,1.51,0,0,0,.87-.21.68.68,0,0,0,.29-.58.55.55,0,0,0-.19-.45,1.39,1.39,0,0,0-.61-.26l-.92-.2q-1.26-.27-1.26-1.29A1.28,1.28,0,0,1,96.88,13a2.21,2.21,0,0,1,1.39-.4,3.34,3.34,0,0,1,.84.11,2.19,2.19,0,0,1,.73.37.32.32,0,0,1,.15.3.35.35,0,0,1-.16.26.27.27,0,0,1-.33,0,2.46,2.46,0,0,0-.61-.3,2.29,2.29,0,0,0-.62-.1,1.38,1.38,0,0,0-.86.23.69.69,0,0,0-.3.58c0,.38.25.63.75.73l.92.2a2,2,0,0,1,1,.45,1.07,1.07,0,0,1,.33.83,1.25,1.25,0,0,1-.54,1.07A2.34,2.34,0,0,1,98.14,17.73Z"/><path class="cls-1" d="M103,17.73a3.63,3.63,0,0,1-.92-.12,2.55,2.55,0,0,1-.86-.38.29.29,0,0,1-.17-.28.34.34,0,0,1,.13-.28.3.3,0,0,1,.34,0,2.64,2.64,0,0,0,1.5.43,1.51,1.51,0,0,0,.87-.21.68.68,0,0,0,.29-.58.55.55,0,0,0-.19-.45,1.39,1.39,0,0,0-.61-.26l-.92-.2q-1.26-.27-1.26-1.29a1.28,1.28,0,0,1,.54-1.08,2.21,2.21,0,0,1,1.39-.4,3.34,3.34,0,0,1,.84.11,2.19,2.19,0,0,1,.73.37.32.32,0,0,1,.15.3.35.35,0,0,1-.16.26.27.27,0,0,1-.33,0,2.46,2.46,0,0,0-.61-.3,2.29,2.29,0,0,0-.62-.1,1.38,1.38,0,0,0-.86.23.69.69,0,0,0-.3.58c0,.38.25.63.75.73l.92.2a2,2,0,0,1,1,.45,1.07,1.07,0,0,1,.33.83,1.25,1.25,0,0,1-.54,1.07A2.34,2.34,0,0,1,103,17.73Z"/><path class="cls-1" d="M108.43,17.73a2.5,2.5,0,0,1-1.84-.68,2.55,2.55,0,0,1-.68-1.86,2.76,2.76,0,0,1,.31-1.34,2.19,2.19,0,0,1,.83-.9,2.28,2.28,0,0,1,1.23-.32,2,2,0,0,1,1.57.64,2.58,2.58,0,0,1,.57,1.77c0,.21-.12.31-.36.31h-3.35a1.85,1.85,0,0,0,.49,1.28,1.68,1.68,0,0,0,1.23.44,3.16,3.16,0,0,0,.68-.08,2.13,2.13,0,0,0,.67-.31.37.37,0,0,1,.39-.06.3.3,0,0,1,.16.27.37.37,0,0,1-.21.33,2.32,2.32,0,0,1-.79.38A3.21,3.21,0,0,1,108.43,17.73Zm-.13-4.5a1.44,1.44,0,0,0-1.1.44,1.92,1.92,0,0,0-.48,1.14h3a1.83,1.83,0,0,0-.39-1.16A1.27,1.27,0,0,0,108.3,13.23Z"/></svg>