<?xml version="1.0" encoding="utf-8"?>
<!-- Generator: Adobe Illustrator 25.4.1, SVG Export Plug-In . SVG Version: 6.00 Build 0)  -->
<svg version="1.1" id="Layer_1" xmlns="http://www.w3.org/2000/svg" xmlns:xlink="http://www.w3.org/1999/xlink" x="0px" y="0px"
	 viewBox="0 0 261.6 201.3" style="enable-background:new 0 0 261.6 201.3;" xml:space="preserve">
<style type="text/css">
	.st0{opacity:0.15;fill:#343A40;enable-background:new    ;}
	.st1{fill:#FDB6A1;}
	.st2{fill:#F09E86;}
	.st3{fill:#FABEAF;}
	.st4{fill:url(#Path_507_00000012445925310363478610000001232822254863845781_);}
	.st5{fill:#F5B19C;}
	.st6{fill:#007BFF;}
	.st7{fill:url(#Path_511_00000068666485048225464440000013962447741110262160_);}
	.st8{fill:#343A40;}
	.st9{fill:url(#Path_516_00000109016392222771449650000010084254141690395828_);}
	.st10{fill:url(#Path_517_00000139280119339012581850000015725376253267462826_);}
	.st11{fill:url(#Path_518_00000152944969486895910980000002823651799304953989_);}
	.st12{fill:url(#Path_524_00000121274100125349612480000004275471370555181729_);}
	.st13{fill:#409CFF;}
	.st14{fill:#FFFFFF;}
	.st15{fill:#F0F0F0;}
	.st16{fill:url(#Path_537_00000113343828867956601650000014090860280173179304_);}
	.st17{fill:#FFD863;}
	.st18{fill:#C53952;}
	.st19{fill:#DDAF89;}
	.st20{fill:#EABF9A;}
	.st21{fill:#CE9C77;}
	.st22{fill:#EFCEB2;}
	.st23{fill:url(#Path_563_00000121968926065322198620000009969870269760305563_);}
	.st24{fill:url(#Path_564_00000121259273923908474360000015047696213121900431_);}
	.st25{fill:url(#Path_565_00000150089494316568686600000006891521245782718396_);}
	.st26{fill:#E4E4E4;}
	.st27{fill:#231F20;}
	.st28{fill:#D2495F;}
	.st29{fill:url(#Path_581_00000029007274910937674740000017160178080677856670_);}
	.st30{fill:url(#Path_582_00000152942745765051097990000000852072382501841827_);}
	.st31{fill:url(#Path_590_00000073721885477053271090000007296141071745988235_);}
	.st32{fill:url(#Path_592_00000088093873416277953030000012009053646372312472_);}
	.st33{fill:#F8F9FA;}
	.st34{fill:url(#Path_598_00000124155996507568858920000018179037015780587944_);}
</style>
<g id="Group_242" transform="translate(-50.617 -28.318)">
	<path id="Path_500" class="st0" d="M234,222.8c0,0,49.8,4.1,57.9,1.6s14.5-6.5,0.5-7.8c-14-1.3-66.5-8.3-66.5-8.3L234,222.8z"/>
	<path id="Path_501" class="st0" d="M71.9,192.2c0,0-6.5-0.2-3.2,1.5s11.9,3.8,11.9,3.8s-10.8,4.3-6.3,5.9s53.1,13.9,64.9,12.2
		s26.1,2.4,36.6-0.3s12.8-27.9-16.2-23.6C130.6,195.9,71.9,192.2,71.9,192.2z"/>
	
		<ellipse id="Ellipse_41" transform="matrix(0.1708 -0.9853 0.9853 0.1708 -129.5326 211.3)" class="st1" cx="60.8" cy="182.6" rx="6.5" ry="10.2"/>
	<path id="Path_502" class="st1" d="M95.1,193.3c0,0-6.7,3.9-10.1,2.4c-3.4-1.5-17.8-7.4-17.8-7.4s-3-2.8-1.6-4.8
		c1.4-2,6.3-2.6,9.8-1.1c3.5,1.5,10.4-1,13.3,1.5C91.5,186.3,99.6,184.8,95.1,193.3z"/>
	<path id="Path_503" class="st2" d="M93.7,185.9c-1.7-0.7-3.8-1-5.1-2.1c-0.4-0.3-0.8-0.6-1.2-0.7l0,0c0,0,0.3,6.4-8.3,3.7
		s-12.8-4.7-15.4-0.6c-2.7,4.3-6.7-0.1-7.2,1.8c2.5,1.4,8.6,1.7,12.3,1c4.4,1.8,13.8,5.6,16.2,6.7c1.9,0.9,5-0.1,7.2-1L93.7,185.9z"
		/>
	<path id="Path_504" class="st1" d="M77.4,197.6c0,0-3.4-8.4-1.5-12.8c1.9-4.4,10.3-23.6,10.3-23.6s3.3,0.5,4.6-1.8
		c4.9-8,2.1,8,0.2,12.5s0,13.2-2.9,17S85.9,203,77.4,197.6z"/>
	
		<ellipse id="Ellipse_42" transform="matrix(0.9768 -0.214 0.214 0.9768 -30.2435 22.167)" class="st1" cx="87.3" cy="150.8" rx="6.1" ry="13.1"/>
	<path id="Path_505" class="st2" d="M88.1,190.6c2.9-3.8,1-14.1,3-18.6c1.4-4,2.3-8.2,2.6-12.5c0-1.1,0.1-1.9,0.1-3.1
		c-0.1,0-0.2,0.1-0.3,0.2c-2.3,1.9-1.9,4.4-2.1,8.7c-0.2,4.3-5.2,15.4-8.8,21c-2.4,3.8-5.3,4.5-7,4.6c0.4,2.3,1,4.6,1.8,6.8
		C80.1,203.4,85.1,194.4,88.1,190.6z"/>
	<path id="Path_506" class="st3" d="M160,162.2l2.9,4.2l-12.7,14.9l-16.4-21.1L160,162.2z"/>
	
		<linearGradient id="Path_507_00000029760719944702201770000010599852663347392935_" gradientUnits="userSpaceOnUse" x1="51.5956" y1="623.8359" x2="52.5956" y2="623.8359" gradientTransform="matrix(93.5365 0 0 -48.2733 -4746.6558 30299.5625)">
		<stop  offset="0" style="stop-color:#4CA3FF"/>
		<stop  offset="1" style="stop-color:#459FFF"/>
	</linearGradient>
	<path id="Path_507" style="fill:url(#Path_507_00000029760719944702201770000010599852663347392935_);" d="M148.7,176.5l0.6,0.9
		c0.5,0.9,1.7,1.1,2.6,0.6c0.1-0.1,0.3-0.2,0.4-0.3c2.9-3,8.5-9.4,9.5-13.9c4-2.3,14.3,6.4,10.5,14.2s-30.2,29.7-39.7,30.9
		s-26.2-2.9-31.4-4.2c-2.7-0.7-10.5,2-10.9,0.2c-0.4-1.7-6.5-3-8.3-3.1c-2.5-0.1-2.4-0.7-2.4-2.1c0-2.5,6.9-3,8.2-11.2
		c0.7-4.3,8.7-7.5,8.7-7.5s9.3-0.8,14.4-1.8c5.2-1,3.5-5.8,5.3-7.4c13.2-4.7,20.1-15.3,23.6-8.9
		C142.4,167.5,145.4,172.1,148.7,176.5z"/>
	<path id="Path_508" class="st5" d="M163,163.6l-21.1,1.5c0,0-1,7.6,6.5,9.6c2.1,0.6,4.4,0.6,6.5,0.2c1.5-1.8,6.1-7.3,8.9-11.3
		L163,163.6z"/>
	<path id="Path_509" class="st2" d="M144.4,170.2c0,0,10.2,1.8,17.2-2.5s1.6-3.7,1.6-3.7L144.4,170.2z"/>
	<path id="Path_510" class="st6" d="M166.4,163.3l-2.6,0.2c-2.8,4-7.5,9.6-8.9,11.3c1.7-0.3,3.4-0.9,5-1.7c0.8-0.4,1.9-0.1,2.3,0.7
		c0.1,0.2,0.2,0.4,0.2,0.6c0.7,4.7,2.8,12.4,2.8,12.4l3.5,0.4L166.4,163.3z"/>
	
		<linearGradient id="Path_511_00000095305639511601796150000006069916553325473705_" gradientUnits="userSpaceOnUse" x1="51.5874" y1="623.4274" x2="52.3244" y2="624.3224" gradientTransform="matrix(28.3342 0 0 -44.5231 -1346.147 27892.207)">
		<stop  offset="0" style="stop-color:#FFDA6A"/>
		<stop  offset="1" style="stop-color:#FFC107"/>
	</linearGradient>
	<path id="Path_511" style="fill:url(#Path_511_00000095305639511601796150000006069916553325473705_);" d="M120.7,139.3
		c0,0-7-2.3-6.2-9.2c0.8-6.9-1.3-17.6,0.7-21s10.2-12.4,15.1-13.6c4.8-1.3,12.4-0.7,12.3,2.8c-0.1,3.5-2.1,5.2-2.8,5.4
		c-0.7,0.2-4.1,19.6-4.1,19.6L120.7,139.3z"/>
	
		<ellipse id="Ellipse_43" transform="matrix(0.694 -0.72 0.72 0.694 -53.6827 150.1476)" class="st1" cx="149.8" cy="138.2" rx="30.8" ry="30.1"/>
	<path id="Path_512" class="st3" d="M175.4,124.9c-5.2-12.3-13.7-5.4-13.7-5.4s-18.2,8.4-17.7,20.8c0.5,12.4,7.3,21.2,7.5,27l0,1.3
		c3.4-0.3,6.7-1.1,9.8-2.5c1.4-5.2,4.6-15.5,7.8-17C173.5,147.1,180.6,137.2,175.4,124.9z"/>
	<path id="Path_513" class="st8" d="M156.9,144.2c-0.2,0-0.3,0-0.5-0.1c-0.8-0.3-1.2-1.1-1-1.9c0,0,0,0,0,0c0.6-1.7,1.1-4.9,0.3-6.4
		c-0.2-0.4-0.7-0.7-1.2-0.7c-3.3-0.6-5.1,6.3-5.1,6.4c-0.2,0.8-1,1.3-1.9,1.1c-0.8-0.2-1.3-1-1.1-1.9c0.1-0.4,2.4-9.7,8.6-8.7
		c1.4,0.2,2.6,1,3.3,2.2c1.9,3.1,0.2,8.3,0,8.9C158.2,143.8,157.6,144.2,156.9,144.2z"/>
	<path id="Path_514" class="st8" d="M165.4,143.9c-0.1,0-0.2,0-0.3,0c-0.8-0.2-1.4-1-1.2-1.8c0,0,0,0,0,0c0.1-0.6,1.2-6.3,4.1-8.1
		c0.9-0.6,2-0.8,3.1-0.5c1.2,0.3,2.1,1.1,2.6,2.2c1.3,2.7-0.4,6.7-0.5,7.1c-0.3,0.8-1.2,1.1-2,0.8s-1.1-1.2-0.8-2
		c0.5-1.3,1.1-3.5,0.6-4.5c-0.1-0.3-0.4-0.5-0.7-0.5c-0.2-0.1-0.4,0-0.6,0.1c-1.3,0.8-2.4,4-2.7,6.1
		C166.8,143.4,166.2,143.9,165.4,143.9z"/>
	<path id="Path_515" class="st8" d="M157.1,162.2c-0.2,0-0.4,0-0.5,0c-1.7,0-3.2-0.9-4.1-2.3c-1.9-3.2,0.3-8.3,0.6-8.9
		c0.4-0.8,1.3-1.1,2-0.8c0.8,0.4,1.1,1.3,0.8,2l0,0c-0.6,1.4-1.6,4.6-0.7,6c0.2,0.3,0.6,0.7,1.7,0.8c3.9,0.3,5-5.1,5-5.3
		c0.2-0.8,1-1.4,1.8-1.2c0.8,0.2,1.4,0.9,1.2,1.8C164.3,157.1,162,162.2,157.1,162.2z"/>
	<g id="Group_234" transform="translate(80.211 168.493)">
		
			<linearGradient id="Path_516_00000137097824527533823510000004740680941407113147_" gradientUnits="userSpaceOnUse" x1="-28.6196" y1="455.3451" x2="-27.6196" y2="455.3451" gradientTransform="matrix(78.0092 0 0 -42.9062 2231.5386 19558.5898)">
			<stop  offset="0" style="stop-color:#3697FF"/>
			<stop  offset="1" style="stop-color:#007BFF"/>
		</linearGradient>
		<path id="Path_516" style="fill:url(#Path_516_00000137097824527533823510000004740680941407113147_);" d="M74.2,23
			c-3.9,0.2-11,4.2-11.1-0.2c-0.1-5.7-3.7-1.1-10.5,3.9l1.6-2.3c-1.8,0.6-3.8,0.8-5.7,0.5c-2.4-0.2,2.9-14.5,5.2-17.6S44.9,0,44.9,0
			s-6.8,6.9-5.4,16.8c1,7.6,2.2,13.5,2.6,15.8c-0.3,0.1-0.5,0.2-0.8,0.3c-2-4.6-5.6-11-9.5-9.2c0,0,0.4,1.9-10.8,1.7s-14-3.3-14-3.3
			l-0.2,0.7c-1.6,4-7.8,5.6-7.7,8.7s2.1,4.1,4.6,4.2c1.6,0.2,3.3,0.6,4.8,1.1c0,0,7.4,1.6,10.2,2.3c5.2,1.3,23,4.7,32.6,3.5
			c5.2-0.6,17.3-8.4,25.8-16C75.2,27.2,76.5,22.9,74.2,23z"/>
		
			<linearGradient id="Path_517_00000013883968018845848780000014965584621713960584_" gradientUnits="userSpaceOnUse" x1="-30.2206" y1="455.8164" x2="-29.2206" y2="455.8164" gradientTransform="matrix(1.229 0 0 -1.7569 101.2508 810.2205)">
			<stop  offset="0" style="stop-color:#3697FF"/>
			<stop  offset="1" style="stop-color:#007BFF"/>
		</linearGradient>
		<path id="Path_517" style="fill:url(#Path_517_00000013883968018845848780000014965584621713960584_);" d="M64.1,10.3l1.2-1.8
			C65.3,8.5,65.2,8.3,64.1,10.3z"/>
		
			<linearGradient id="Path_518_00000067919884589570619740000012987106090703204490_" gradientUnits="userSpaceOnUse" x1="-28.7961" y1="455.3862" x2="-27.7961" y2="455.3862" gradientTransform="matrix(9.891 0 0 -14.1 339.0421 6438.2891)">
			<stop  offset="0" style="stop-color:#3697FF"/>
			<stop  offset="1" style="stop-color:#007BFF"/>
		</linearGradient>
		<path id="Path_518" style="fill:url(#Path_518_00000067919884589570619740000012987106090703204490_);" d="M60.9,17.1
			c1.6-3.5,2.6-5.5,3.2-6.8l-9.9,14.1C56.4,23.5,58.9,21.5,60.9,17.1z"/>
	</g>
	<path id="Path_519" class="st1" d="M126.2,200.6c0.7-2.2-1.1-14.6-1.1-14.6s-9.3-2.4-10.3,4.3c-0.9,6.8,2.7,18.2,4.1,23.6
		c0.1,0.5,0.3,0.9,0.4,1.4C118.1,211.2,126.2,200.6,126.2,200.6z"/>
	<path id="Path_520" class="st6" d="M126.6,164.9c0,0-10.7,3.4-13.9,12.3c-2.2,6.2,0.2,8.9-1.7,13.8c-0.5,1.2,1,2.3,2.4,1.7
		c4-1.9,8.5-2.7,12.9-2.4c0.4,0.1,0.8-0.2,0.9-0.6c0-0.1,0-0.1,0-0.2c-1-5.1-2-14.4,7.7-20.6C145.3,162.1,126.6,164.9,126.6,164.9z"
		/>
	<path id="Path_521" class="st2" d="M140.8,153.7c-4.9-4.8-7-15.4-12-12.3c-2.8,1.8-7.3,3.3-7.8,6.4c-0.4,2.3,2.7,6.7,2.7,6.7
		c5.4,8.9,14.1,14.6,25.4,14.2c0.3,0,0.5,0,0.7,0C148.1,163,145,157.8,140.8,153.7z"/>
	<path id="Path_522" class="st2" d="M138.5,150.9c-3.4-7,2.9-17.4,4.4-20.4c1.5-3,3.9-10.9,13.3-12.2c8.1-1.1-7.4-5.3-7.4-5.3
		L130.3,138C130.3,138,136.5,152.4,138.5,150.9z"/>
	<path id="Path_523" class="st2" d="M177.6,145.2c2.2-5.5,2.4-11.6,0.6-17.3c-3.1-9.2,0.5-0.6,0.5-0.6c1.9,6.1,2,12.7,0.2,18.8
		C177,150.2,177.6,145.2,177.6,145.2z"/>
	
		<linearGradient id="Path_524_00000057827688771029616250000016657886387751018378_" gradientUnits="userSpaceOnUse" x1="51.5834" y1="623.8362" x2="52.5834" y2="623.8362" gradientTransform="matrix(59.5636 0 0 -47.255 -2953.4363 29606.5156)">
		<stop  offset="0" style="stop-color:#FFDA6A"/>
		<stop  offset="1" style="stop-color:#FFE185"/>
	</linearGradient>
	<path id="Path_524" style="fill:url(#Path_524_00000057827688771029616250000016657886387751018378_);" d="M119.9,149.1
		c0.2,1.1,1.2,1.8,2.3,1.6c0.2,0,0.4-0.1,0.6-0.2c4.1-2.2,12.8-8.4,20.7-24.4c6.3-12.7,19.1-6.6,22.5-4.7c0.6,0.3,1.2,0.5,1.8,0.5
		c3.9,0.2,7.5,2.2,9.9,5.2c0.2,0.2,0.5,0.3,0.7,0.1c0.2-0.1,0.2-0.3,0.2-0.5c-1.6-6.1-5.1-11.5-9.9-15.5
		c-6.6-5.5-16.2-12.2-29.8-3.9C122.9,117.2,116.6,129.6,119.9,149.1z"/>
	<path id="Path_525" class="st2" d="M178.9,145.9c-3.3-3.5-7.5,3.7-10.2,8.1c-2.1,3.3-4.1,6.8-4.7,10.9c7.3-4,12.7-10.8,15-18.8
		C179,145.9,179,145.9,178.9,145.9z"/>
	<path id="Path_526" class="st6" d="M146.9,176.4l-12-17.1l0,0l-0.9,1.2c-0.1,0.2-0.4,0.3-0.6,0.3c-1.6,0-3,0-3.3,0
		c-0.1,0-0.1,0-0.2,0c-0.3,0.1-2.1,3.4-3.3,4.1c-9.2,5.8,1.5,8.7,2.7,9.4l0.1,0.1l0,0l0,0c0.6,0.3,1.1,0.7,1.7,1.1
		c4.8,3.5,12.5,2.5,15.3,2c0.4-0.1,0.6-0.4,0.6-0.8C147,176.5,146.9,176.4,146.9,176.4z"/>
	<path id="Path_527" class="st1" d="M166.9,189.2c0,0-2.8-12.5-3.4-18.4c-0.7-5.9,2.1-10.7,4.8-15.1c2.7-4.3,7-11.5,10.2-8.1
		c3.3,3.5,2.2,14.6-1.9,17.8c-4,3.2-9.2,5.1-7.9,11s3.5,13,3.5,13L166.9,189.2z"/>
	<path id="Path_528" class="st1" d="M147.4,165.1c-3.5-8.3-8-12.3-13.5-13.2c-5.5-0.9-4.6,5.2-4.6,5.2c0.6,11.9,14.3,17.7,16.1,18.5
		c-1,5.1-17.3,23.1-19,24.6c0,0-8.9,10.6-7.6,14.7c1.5,3.6,3.8,2.1,5.2,0.7c13.6-9.6,24-31.1,25.5-35.6
		C151,175.6,150.9,173.3,147.4,165.1z"/>
	<path id="Path_529" class="st3" d="M65.4,179.9L65.4,179.9c0.1-0.6-0.1-1.2-0.6-1.6c-1.5-0.9-3.2-1.4-5-1.5
		c-3.4-0.2-6.4,0.8-7.7,2.5c-0.2,0.3-0.3,0.6-0.2,1c0.4,1.4,1.6,2.7,4.5,2.9c0,0,2.5,0.6,8.5-2.5C65.2,180.5,65.4,180.2,65.4,179.9z
		"/>
	<path id="Path_530" class="st3" d="M91.5,155.8L91.5,155.8c0.7-0.2,1.2-0.9,1.2-1.6c0.1-2.3-0.2-4.6-1-6.8
		c-1.4-4.2-3.9-7.3-6.2-7.9c-0.4-0.1-0.8,0-1,0.3c-1.1,1.3-1.8,3.4-0.6,7c0,0,0.7,3.3,6.6,8.8C90.8,155.9,91.2,155.9,91.5,155.8z"/>
	<g id="Group_235" transform="translate(128.268 98.909)">
		<path id="Path_531" class="st13" d="M17.4,0c-1,0.1-2,0.3-3,0.6c-0.4,3.3-2.5,5.1-1.4,9.1c4.9-2.6,9.6-5.1,9.6-5.1
			S22.9-0.4,17.4,0z"/>
		<path id="Path_532" class="st6" d="M14.3,0.6C8.1,2.4-1.2,7.5-1.1,9.7c0.1,2.6,1,5.4,3.2,5.1c1.1-0.1,6.1-2.6,10.8-5.1
			C11.9,5.7,14,3.9,14.3,0.6z"/>
	</g>
	<g id="Group_236" transform="translate(128.268 98.908)">
		<path id="Path_533" class="st14" d="M21.9,2.1C21.3,0.9,20-0.2,17.4,0c-1,0.1-2,0.3-3,0.6c-0.1,1-0.4,2-0.8,3
			C16.2,2.5,19.1,2,21.9,2.1z"/>
		<path id="Path_534" class="st15" d="M-1.1,9.7c0,0.9,0.2,1.7,0.4,2.6c4.3-3.6,9-6.5,14.2-8.7c0.4-1,0.6-2,0.8-3
			C8.1,2.4-1.2,7.5-1.1,9.7z"/>
	</g>
	<path id="Path_535" class="st3" d="M139.8,155.2c2.7,2,8,7.3,10.3,18.2c0.1,0.4-0.2,0.9-0.6,1c-0.2,0-0.4,0-0.6-0.1
		c-1.6-1-4.4-3.4-7-8.3c-3.2-5.9-3.4-8.1-3.5-9.9c0-0.5,0.3-0.9,0.8-0.9C139.4,155.1,139.7,155.1,139.8,155.2z"/>
	<path id="Path_536" class="st3" d="M164,167.5c0.3-3.4,1.8-10.8,9.6-19.1c0.3-0.3,0.8-0.3,1.1-0.1c0.2,0.1,0.3,0.4,0.3,0.6
		c0,2-0.5,5.6-3.2,10.6c-3.2,6-4.9,7.5-6.4,8.6c-0.4,0.3-0.9,0.2-1.2-0.1C164.1,167.9,164,167.7,164,167.5z"/>
	
		<linearGradient id="Path_537_00000044159644065884841210000007089723882210886295_" gradientUnits="userSpaceOnUse" x1="51.5806" y1="623.8397" x2="52.5806" y2="623.8397" gradientTransform="matrix(54.918 0 0 -39.7112 -2712.3325 24896.7832)">
		<stop  offset="0" style="stop-color:#FFDA6A"/>
		<stop  offset="1" style="stop-color:#FFC107"/>
	</linearGradient>
	<path id="Path_537" style="fill:url(#Path_537_00000044159644065884841210000007089723882210886295_);" d="M174.1,120.7
		c0.7,0,1.3-0.7,1.2-1.4c0-0.2-0.1-0.4-0.2-0.6c-1.7-2.8-3.9-5.3-6.4-7.4c-6.6-5.5-16.2-12.2-29.8-3.9c-11.4,7-16.6,14.6-18.1,25.9
		c-0.3,1.5-0.4,3-0.4,4.5c0.1,0.8,0.2,1.7,0.5,2.5c1.1,3.3,3.7,3.7,6.4,1.4c1.5-1.2,2.8-2.7,3.8-4.4c4.1-6.4,8.3-20.2,16.9-23.2
		c6.6-2.3,13.4-0.3,16.2,0.8c0.8,0.3,1.5,0.8,2.1,1.5C167.6,118,170.5,120.9,174.1,120.7z"/>
	<path id="Path_538" class="st17" d="M138.9,96.6c0.4,0,0.8-0.3,0.8-0.8c0-0.4-0.2-0.7-0.6-0.7c-2.9-0.5-5.8-0.4-8.7,0.3
		c-4.8,1.3-13,10.2-15.1,13.6s0.1,14.2-0.7,21c-0.2,1.5,0,3,0.6,4.3c0.2,0.4,0.6,0.5,1,0.3c0.2-0.1,0.4-0.3,0.4-0.5
		c1.1-5.5,2.9-14,3.9-20.1c1.6-9.7,5.7-12.2,10.6-15.5C133.2,97.2,136.2,96.7,138.9,96.6z"/>
	<g id="Group_237" transform="translate(115.475 188.14)">
		<path id="Path_539" class="st2" d="M10.6,11.4c0,0-2.2,3-3.6,3.5S5.7,4.7,5,1.7C4.4-1.2-1.2-0.4-1,4s3.2,20,4.3,22.9
			s2.6,2.5,3.4,2s-3.7-6.8,4-16.4l0.1-0.1c0-0.4,0.1-0.9,0.1-1.2C10.7,11.3,10.6,11.4,10.6,11.4z"/>
	</g>
	<g id="Group_238" transform="translate(121.674 173.806)">
		<path id="Path_540" class="st13" d="M2.3,0.9c-3,4.6-3.9,9-3.1,15.9l0,0c2.2-0.8,4.2-1.2,5.4-0.9C5,16,5.4,15.8,5.5,15.4
			c0-0.1,0-0.1,0-0.2C5.3,11.1,5,8.6,7.6,3C8.8,0.2,4.9,0.2,4.2,0C3.5-0.1,2.7,0.3,2.3,0.9z"/>
	</g>
	<g id="Group_239" transform="translate(111.795 187.711)">
		<path id="Path_541" class="st15" d="M-0.4,2.2c0,0-1.8,3.6,0.6,3.1C1.3,5.1,5.3,4.6,9,4.2C8.9,2.8,8.9,1.5,9,0.1
			C5.8,0.4,2.6,1.1-0.4,2.2z"/>
		<path id="Path_542" class="st14" d="M15.8,0.7C13.6,0,11.3-0.2,9,0.1C8.9,1.5,8.9,2.8,9,4.2c3.5-0.4,6.6-0.9,6.7-1.4
			C15.9,2.1,15.9,1.4,15.8,0.7z"/>
	</g>
	<path id="Path_543" class="st14" d="M87.6,188.4c-1.2,8.2-8.2,8.7-8.2,11.2c0,1.4-0.1,2,2.3,2.1c0-0.1-0.1-0.2-0.1-0.3
		c-0.7-2.5,3.3-4.3,3.9-4.9c0.6-0.6,2.9-4.5,3.7-5.5c0.9-1.5,1.7-3.1,2.2-4.8c0.7-2.2,7.1-5.5,7.1-5.5l0,0c-1.3,0.1-2.2,0.2-2.2,0.2
		S88.3,184.1,87.6,188.4z"/>
	<path id="Path_544" class="st15" d="M87.1,190.6l-0.2,0.7c-1.6,4-7.8,5.6-7.7,8.7c-0.2,2.1,1.4,3.9,3.5,4.1c-0.4-0.8-0.8-1.7-1-2.6
		c-0.7-2.5,3.3-4.3,4-4.9c0.5-0.5,2.3-3.3,3.2-4.8C88.2,191.4,87.6,191.1,87.1,190.6z"/>
	<path id="Path_545" class="st18" d="M305.7,183.6c0,0,0.1,1.8-3,2.1s-5.5-2.9-5.5-2.9S302.6,179.5,305.7,183.6z"/>
	<path id="Path_546" class="st19" d="M230.3,101.2c0,0-2.9,30.9-6.1,31.8s-19.7-19.2-19.7-19.2L230.3,101.2z"/>
	<path id="Path_547" class="st20" d="M225.5,131.1c1.4-3.6,2.6-11.4,3.5-18.1c-0.2,0.3-0.4,0.6-0.6,0.9c-4.7,7.5-16.7,7.6-16.7,7.6
		l1.1,1.9c2.6,3,5.5,5.8,8.5,8.3L225.5,131.1z"/>
	<path id="Path_548" class="st21" d="M211.6,117.2c0,0,10.3,0.4,15.1-5.6s5.1-9.3,5.1-9.3l-7.4-3
		C224.3,99.3,203.3,113.5,211.6,117.2z"/>
	<path id="Path_549" class="st19" d="M224.1,116.4c0,0,0.2,7.3-0.6,9.2s-1.6,4.8-0.9,7s6.7,0.5,6.7,0.5l2.4-15.7
		C231.6,117.3,226.7,106.6,224.1,116.4z"/>
	<path id="Path_550" class="st19" d="M223.7,123.2c0.1-0.2,1.6-5.3-2.4-3.7s-2.6-2.4-2.6-2.4l5.9-0.9l0.8,1.4l0.1,6.3l-2.6,3.6
		C222.8,127.4,223.6,123.3,223.7,123.2z"/>
	<path id="Path_551" class="st20" d="M301.1,182.7c0,0,10.6,8.5,11.1,16.5s-2.1,18.6-15.3,20.6s-35.3,0.2-42.1-2.2
		s-17.3-10.3-17.3-10.3s17-36.5,38.2-33.3S301.1,182.7,301.1,182.7z"/>
	<path id="Path_552" class="st19" d="M267.2,185.9c0,0,11.1,2.1,13.3,7.5c-2.6-1.2-9.6-5.8-17.4-6.2
		C255.3,186.8,267.2,185.9,267.2,185.9z"/>
	<path id="Path_553" class="st19" d="M303.1,184.5c-1.2-1.1-2-1.8-2-1.8s-3.1-3.9-17.1-7l-16.5-0.9c-2.2,0.7-4.3,1.6-6.2,2.9
		l-0.8,8.7c0,0,5.1,2.8,13.7,1.9C274.2,188.1,284.1,177.7,303.1,184.5z"/>
	<path id="Path_554" class="st19" d="M311.9,205.3c-1.3-1.3-3.6-0.9-9,2.2c-7.3,4.3-39.7,1.3-41.7-6.4c-2-7.8,12.6-11,12.6-11
		l-5.8-2.3c0.2-0.1,0.2-0.3,0.2-0.4c0-0.1-0.1-0.2-0.3-0.2l-9.2-1.1c0,0-10.6,14.6-17.4,24c3.7,2.5,9.3,6.1,13.4,7.5
		c6.7,2.3,28.8,4.2,42.1,2.2C306.9,218.2,310.8,211.7,311.9,205.3z"/>
	<path id="Path_555" class="st20" d="M220.7,175.3c0,0-27.4,2.7-31.2,6.8s8.9,8.7,8.9,8.7l21-2.9C219.4,187.8,231.5,186,220.7,175.3
		z"/>
	<path id="Path_556" class="st21" d="M264.6,184.9c0.8,0.1,9.5,1.7,12.8,5.9c0.1,0.2,0.1,0.5-0.1,0.6c-0.1,0.1-0.3,0.1-0.4,0
		c-3.3-1.6-9.5-4.9-16.3-5.1c-7.5-0.2,3.1-1.3,4-1.4C264.6,184.9,264.6,184.9,264.6,184.9z"/>
	<path id="Path_557" class="st21" d="M249.4,202.2c-1.7,2.3-6.6,5.8-8,7.9c3.7,2.5,9.3,6.1,13.4,7.5c4.1,1.2,8.4,1.9,12.6,2.2
		c0.5-0.7,0.9-1.4,1.2-2.2C272.3,210.8,260,205.5,249.4,202.2z"/>
	<path id="Path_558" class="st22" d="M212.4,132.7c0,0,4.4,24.8,3.7,30.9s-5.1,15.2-14.3,20.2s-13.6-0.6-13.6-0.6
		s13.3-14.5,14.5-17.7s0.3-13.9-2.2-24.9S212.4,132.7,212.4,132.7z"/>
	<path id="Path_559" class="st21" d="M254.1,203.8c0,0-2.6-1.5-0.9-3.6s10.2-11.4,12.5-11.9c1.6-0.3,3.2-0.2,4.7,0.3l-1.6-1.9
		c4.1-2.8,8.9-4.7,13.8-5.4c7.6-0.9-1.1-4.6-1.1-4.6s-25.9,5.5-31,17.3c-5.1,11.8-2.4,10-2.4,10L254.1,203.8z"/>
	<path id="Path_560" class="st20" d="M202,138.2c0,0-0.7,1.6,3.5,6.2c4,4.2,6.7,9.4,7.9,15c1.4,5.9,1.5-1.9,1.5-1.9l-3.2-21.3
		C211.7,136.2,203.4,133.3,202,138.2z"/>
	<path id="Path_561" class="st20" d="M208.6,139c0,0,0.4,9.7,1.9,12.2c1.5,2.5,4.5,12,3.2,16c-1.3,4.1-3.4,5.7-2.1,7.3
		c0,0,0.1,0.1,0.1,0.1c2.3-3.3,3.8-7.1,4.4-11.1c0.6-5.3-2.7-24.8-3.5-29.7L208.6,139z"/>
	<path id="Path_562" class="st19" d="M209.4,138.2c0,0,1.1,11,6.1,15.4c-0.2-2.7-1.9-13.9-1.9-13.9L209.4,138.2z"/>
	
		<linearGradient id="Path_563_00000038372367593642908010000014166428623046964885_" gradientUnits="userSpaceOnUse" x1="52.1235" y1="624.0684" x2="52.1185" y2="624.0154" gradientTransform="matrix(115.2565 0 0 -115.9895 -5756.7329 72508.5781)">
		<stop  offset="0" style="stop-color:#8C68CD"/>
		<stop  offset="1" style="stop-color:#8C68CD"/>
	</linearGradient>
	<path id="Path_563" style="fill:url(#Path_563_00000038372367593642908010000014166428623046964885_);" d="M194.9,113.5
		c0,0-6.7,2.4-3.7,14c1.8,7,2.4,6,3.1,9.6c0.3,1.2,1.5,2.1,2.7,1.8c0.3-0.1,0.7-0.2,0.9-0.4c3.6-2.8,6.9-0.6,9.9-1.1
		c3-0.5,2.8-0.5,3.2,4.4c0.5,4.7,5.6,14,17.8,15.8c1,0.1,2.6,2.3,3,3.3c1.6,3.7,0.8,9,0.8,9s-12.9,4.2-15.7,4.7s1.7,5.4,2.3,6.9
		s10.3,22.5,10.3,22.5l13,5.4c0,0,15.8-20.2,19.6-21.4s2.1-2.2,3.7-2.9c1.6-0.6,22.1-8.4,38-0.5c0.6,0.3,1.2,0,1.5-0.5
		c0.2-0.3,0.1-0.7,0-1c-4.3-8.9-21.5-31.8-29.8-40.6c-9.9-10.5-12.6-31-18.9-39.7c-4.8-6.6-12.5-10.8-17.8-9s-11.9,5.3-11.7,9.3
		s-2.6,23.7-4.4,26.5c-1.8,2.8-10.6-11-13.2-12.9S194.9,113.5,194.9,113.5z"/>
	
		<linearGradient id="Path_564_00000011741700147154791770000011243100856984419744_" gradientUnits="userSpaceOnUse" x1="51.5309" y1="623.914" x2="52.5309" y2="623.914" gradientTransform="matrix(23.2082 0 0 -8.9918 -1005.3329 5728.6909)">
		<stop  offset="0" style="stop-color:#8C68CD"/>
		<stop  offset="1" style="stop-color:#6F42C1"/>
	</linearGradient>
	<path id="Path_564" style="fill:url(#Path_564_00000011741700147154791770000011243100856984419744_);" d="M207.9,122.6
		c3.3-0.7,6-1.3,6-1.3c-1.2-1.7-2.6-3.2-4.1-4.6c-2.7-1.9-7.6-2.5-7.6-2.5s-11.7-1.6-11.5,5.7C190.8,120.1,201,124.5,207.9,122.6z"
		/>
	
		<linearGradient id="Path_565_00000103969954039338435700000010515170575914366366_" gradientUnits="userSpaceOnUse" x1="51.5195" y1="623.8531" x2="52.5195" y2="623.8531" gradientTransform="matrix(20.497 0 0 -24.6126 -827.5195 15460.3682)">
		<stop  offset="0" style="stop-color:#8C68CD"/>
		<stop  offset="1" style="stop-color:#6F42C1"/>
	</linearGradient>
	<path id="Path_565" style="fill:url(#Path_565_00000103969954039338435700000010515170575914366366_);" d="M241.5,93.6
		c-5.3,1.8-11.7,6.7-11.6,10.8c-0.2,4.6-0.7,9.1-1.5,13.6c0.3,0,1-1,1-1s8.9-14.8,19.5-21.4C246.9,94.2,243.7,92.9,241.5,93.6z"/>
	<g id="Group_240" transform="translate(205.484 96.861)">
		<path id="Path_566" class="st15" d="M20,22.7c1.2-0.3,2.4-0.9,3.3-1.7c1.1-5.6,2.2-11.6,2.8-14.9c-1.2,3.2-2.9,6.1-5,8.7
			C20.8,17.3,20.4,20.1,20,22.7z"/>
		<path id="Path_567" class="st26" d="M26.9,0c-2.9,1.8-5.1,3.9-5,6.3c-0.1,2.8-0.3,5.7-0.7,8.5c2.1-2.6,3.8-5.6,5-8.7
			c0.3-1.6,0.5-2.6,0.5-2.6C26.9,2.3,27,1.2,26.9,0z"/>
		<path id="Path_568" class="st15" d="M4.3,19.8c-1.6-1-3.4-1.7-5.3-2c0,0,0,0,0,0.1c1.9,2.5,4.1,4.9,6.3,7.2c1-0.3,2-0.5,3-0.6
			C7.1,22.8,5.8,21.2,4.3,19.8z"/>
		<path id="Path_569" class="st14" d="M17.5,32.8c-1.2,1.9-5.6-3.8-9.2-8.3c-1,0.1-2,0.4-3,0.6c3.7,3.8,6.3,6.8,7.8,7.9
			c2.8,2.1,5.1,4.3,6.9,1.2c0.8-1.3,2.1-7.1,3.4-13.3c-1,0.8-2.1,1.4-3.3,1.7C19.2,27.4,18.2,31.6,17.5,32.8z"/>
	</g>
	<circle id="Ellipse_44" class="st20" cx="203" cy="85.5" r="32.8"/>
	<path id="Path_570" class="st8" d="M196.7,99.6c-0.5,0-1-0.3-1.3-0.7c-0.3-0.5-3.2-5.5-1.8-9.2c0.6-1.6,1.9-2.8,3.6-3.3
		c1.6-0.6,3.3-0.5,4.8,0.3c4.2,2.1,6.5,8.6,6.6,8.9c0.3,0.8-0.2,1.7-1,2c-0.8,0.3-1.7-0.2-2-1c-0.5-1.6-2.5-5.9-5.1-7.1
		c-0.8-0.4-1.6-0.4-2.4-0.1c-0.8,0.2-1.4,0.7-1.7,1.5c-0.7,2,0.9,5.5,1.6,6.6c0.4,0.7,0.2,1.7-0.5,2.1
		C197.2,99.5,197,99.6,196.7,99.6z"/>
	<path id="Path_571" class="st8" d="M197.2,114.9c-3.3,0-5.8-3.6-6.9-6c-0.3-0.8,0-1.7,0.8-2c0.8-0.3,1.7,0,2,0.8
		c0,0.1,2.3,4.9,4.7,4.1c0.8-0.2,0.9-0.6,1-0.7c0.4-1.1-0.6-3.2-1.1-4c-0.5-0.7-0.3-1.7,0.4-2.1c0.7-0.5,1.7-0.3,2.1,0.4
		c0,0,0,0.1,0.1,0.1c0.2,0.4,2.4,3.9,1.4,6.7c-0.5,1.3-1.6,2.3-2.9,2.6C198.2,114.8,197.7,114.9,197.2,114.9z"/>
	<path id="Path_572" class="st19" d="M232.2,84.8l-19-24.7c-2.7-1.1-10.7-4.9-16.5-6.8c-14.1,2.7-24.8,14.3-26.4,28.6
		c0.4,0.1,0.9,0.3,1.3,0.4c0.5,0.2,1.1,0,1.4-0.5c2.4-3.4,8.6-14.1,17.7-9.1s5.3,8.6,16.6,12.4c10.9,3.7,12.8,21.3,8.9,30.5
		c8.1-3.6,14.4-10.3,17.5-18.5c0.8-2.4,1.2-4.9,1.1-7.4C234.8,88.3,232.3,86,232.2,84.8z"/>
	<path id="Path_573" class="st21" d="M227.6,63.8c-12-13.6-32.7-15-46.3-3c-2.7,2.4-5,5.2-6.8,8.4c0.6-0.2,1.2-0.4,2-0.7
		c0,0,9.2-11.3,17.1-1.8s8.4,10.3,18.9,15s14.7,24.8,14.7,24.8l0.3,0.8c3.7-4.2,6.3-9.3,7.5-14.8L227.6,63.8z"/>
	<path id="Path_574" class="st27" d="M192.9,37.9c0.2-0.5,0.1-1.1-0.3-1.5c-0.9-0.9-2.7-2.1-5.8-1c-4.6,1.6-20.1,18.2-20.4,33.9
		c-0.3,15.1-2.1,26.9,10.7,43.4c0.5,0.6,1.4,0.7,2,0.2c0.2-0.2,0.4-0.5,0.5-0.8c0.3-1.1,0.5-2.2,0.5-3.3c0,0-9.3-14.1-8.4-24.8
		c1.1-13.8,8.8-21.9,11.8-24c1-0.7,1.8-1.8,2.3-3L192.9,37.9z"/>
	<path id="Path_575" d="M185.8,57c-0.1-0.3-0.2-0.7-0.5-0.9c-1.6-1.5-4.2,2-6.4,5.9c-2.2,3.9-7,9.4-7.1,21.1v0
		c1.4-13.1,8.8-20.9,11.7-22.9c0.3-0.2,0.5-0.4,0.7-0.6l0,0c0.7-0.7,1.2-1.5,1.5-2.4L185.8,57z"/>
	<path id="Path_576" d="M183.3,51.7c0,0,0.9,2.7-2.2,6.6c-3.1,3.9,6.3-2.2,6.3-2.2S187.5,49,183.3,51.7z"/>
	<path id="Path_577" class="st8" d="M179.1,100.4c-0.5,0-1-0.3-1.3-0.8c-0.3-0.5-2.8-4.9-1.7-7.9c0.4-1.1,1.3-2,2.4-2.4
		c1.2-0.5,2.6-0.4,3.7,0.2c3.6,1.8,5.5,8.1,5.7,8.8c0.2,0.8-0.2,1.7-1.1,1.9c-0.8,0.2-1.7-0.2-1.9-1.1l0,0c-0.6-2.2-2.3-6-4.1-6.9
		c-0.4-0.2-0.8-0.2-1.3-0.1c-0.3,0.1-0.5,0.3-0.6,0.6c-0.4,1.2,0.6,3.9,1.5,5.3c0.4,0.7,0.2,1.7-0.5,2.1
		C179.6,100.4,179.3,100.4,179.1,100.4L179.1,100.4z"/>
	<path id="Path_578" class="st27" d="M191.3,36.8c0,0-6.3,7.6-7.8,13.9c-0.6,2.3-1.3,6.2-0.1,7.7c1.1,1.2,2.5,2,4.1,2.5
		c2.8,1.2,5.1-1.8,8.5,4.3c4.6,8.3,8.6,11.9,16.8,13.4c7.8,1.5,15.8,6,18.1,27.2c0.1,0.9,1,1.6,1.9,1.5c0.4,0,0.7-0.2,1-0.5
		c5.4-5.1,14.7-15.7,14.6-25c-0.1-11-3.6-33.5-23.8-46.2S198.4,28.6,191.3,36.8z"/>
	<path id="Path_579" class="st22" d="M302.2,188.2c2,2.1,5.6,6.6,5.8,11.7c0,0.5-0.4,0.9-0.8,0.9c-0.2,0-0.4-0.1-0.5-0.2
		c-1.7-1.3-3.1-2.9-4-4.8c-1.2-2.2-1.9-4.6-1.9-7.1c0-0.5,0.4-0.9,0.9-0.8C301.8,188,302,188.1,302.2,188.2z"/>
	<path id="Path_580" class="st28" d="M248.5,202.2l-16.6-5.5l-1.8,4.1l15.7,4.5L248.5,202.2z"/>
	
		<linearGradient id="Path_581_00000002384777028898594670000004118572342154455196_" gradientUnits="userSpaceOnUse" x1="51.5697" y1="623.8311" x2="52.5697" y2="623.8311" gradientTransform="matrix(42.2612 0 0 -65.6775 -1915.9346 41123.5547)">
		<stop  offset="0" style="stop-color:#9A7BD4"/>
		<stop  offset="1" style="stop-color:#A98EDA"/>
	</linearGradient>
	<path id="Path_581" style="fill:url(#Path_581_00000002384777028898594670000004118572342154455196_);" d="M275.8,142.5
		c-5.6-6-8-15.5-11.7-23.4c-0.2,0.5-0.4,1-0.4,1.5c0,0-2,8.8,5.4,19.4c7.4,10.6,19.6,15.4,21.8,27.1c1.3,6.9,2.4,11.7,3.1,14.5
		c3.5,0.5,6.9,1.5,10,3.1c0.6,0.3,1.2,0,1.5-0.5c0.2-0.3,0.2-0.7,0-1C301.3,174.3,284.1,151.4,275.8,142.5z"/>
	
		<linearGradient id="Path_582_00000121271287236120010600000003931634539277490060_" gradientUnits="userSpaceOnUse" x1="51.5769" y1="623.8293" x2="52.5769" y2="623.8293" gradientTransform="matrix(49.8375 0 0 -76.212 -2354.2258 47713.4961)">
		<stop  offset="0" style="stop-color:#8C68CD"/>
		<stop  offset="1" style="stop-color:#6F42C1"/>
	</linearGradient>
	<path id="Path_582" style="fill:url(#Path_582_00000121271287236120010600000003931634539277490060_);" d="M252.4,184.9
		c-0.3-0.1-3.5-0.6-1.7-2.4c1.9-1.9,9.4-10.1,9.5-16.1c0.1-6-1.5-34.3-1.5-34.3l-4.2,0.1l-6.9,26.5c-0.8-0.7-1.9-0.7-2.7-0.1
		c-4,2.3-12.8-0.3-14.8-0.6c0.8,0.8,1.5,1.8,1.9,2.9c1.6,3.7,0.8,9,0.8,9s-12.9,4.2-15.7,4.7c-2.7,0.5,1.7,5.4,2.3,6.9
		c0.2,0.6,2,4.5,4,8.9l0,0l13.5-10.5l6.6-5.7l-2.5,9.8c-5.3,0.9-11.1,6.8-11.1,6.8l-2,9.4c1.1,2.3,1.8,3.9,1.8,3.9l10.5,4.4l4-0.9
		c4-5.1,15-18.5,18.1-19.5c3.9-1.2,2.1-2.2,3.7-2.9C266.1,185.1,258.9,185.3,252.4,184.9z"/>
	<path id="Path_583" class="st20" d="M233.6,216.1l22.1,3c0,0,9,2.2,10.6-3.8c1.5-5.9-17.7-12.6-28.7-15.8S233.6,216.1,233.6,216.1z
		"/>
	<path id="Path_584" class="st22" d="M239.8,130.8c0,0-1.7,19.3,4.4,29.7c-3,3.3-21.5,25.1-21.5,25.1l12.1,9.9l20.8-26.4
		c0,0,4.1-1.9,3.3-14c-0.8-12.1-1.1-29.5-1.1-29.5L239.8,130.8z"/>
	<path id="Path_585" class="st22" d="M237.9,199.7c0,0,20.6,6.2,22.1,9c1.4,2.8-8.5,1.6-13.3,0.1s-13.7-3-13.7-3s-4.9-8.5,3.2-6.5"
		/>
	<path id="Path_586" class="st19" d="M247.2,216.5c-3.7-0.5-9.8-1.6-12.4-2.1c0.4,1.2,0.8,1.9,0.8,1.9l20,2.8c0,0,8,1.9,10.2-2.8
		C265.8,216.3,255,217.6,247.2,216.5z"/>
	<path id="Path_587" class="st8" d="M183.7,50.2c0.4-2.6-2-3.5-4.7-2.2s-2.2-1.4-0.1-1.7s3.2-0.7,4.9-0.2s1.2-1.7,0.4-1.9
		c-1.2-0.5-2.5-0.5-3.7-0.1c-1.7,0.6-1.8-1.4,0.2-1.6s3.9,0.1,4.8-0.3c0.9-0.4,0.6-1.8-1.8-1.3c-2.3,0.4-2.2-1-0.5-1.3
		c1.7-0.2,2.8,0.4,3.8-0.5s2.7-2.5,4.2-2.4s-4.6,6.8-5.8,10.5S183.3,52.8,183.7,50.2z"/>
	<path id="Path_588" class="st20" d="M255.6,169.2c0,0,4.1-1.9,3.3-14c-0.6-9.1-0.9-21.2-1-26.7c-2.7-0.4-11.5-1.2-11.2,4.3
		c0,0,0.7,16.5,2.1,20.4c1.4,4,1.4,11.6-0.8,15.3c-2.1,3.8-7,10.8-8.8,19.7c-0.1,0.6-0.2,1.3-0.2,2L255.6,169.2z"/>
	<path id="Path_589" class="st19" d="M258.9,155.2c-0.5-8.1-0.7-18.6-0.8-24.7c0-0.1-0.1-0.2-0.2-0.3c-1.4-0.9-2.6-0.6-3.6,2.4
		c0,0.1,0,0.1,0,0.2c0.3,1.4,3.3,17.2,2.8,21.9c-0.4,4.1,0.2,9-0.6,12.4c-0.1,0.2,0.1,0.4,0.3,0.5c0.2,0,0.4,0,0.4-0.2
		C258.2,165.6,259.3,162.1,258.9,155.2z"/>
	
		<linearGradient id="Path_590_00000081643218999246874000000006236011554782111885_" gradientUnits="userSpaceOnUse" x1="51.5359" y1="623.8449" x2="52.5359" y2="623.8449" gradientTransform="matrix(24.6615 0 0 -32.0999 -1034.4679 20142.3867)">
		<stop  offset="0" style="stop-color:#9A7BD4"/>
		<stop  offset="1" style="stop-color:#A98EDA"/>
	</linearGradient>
	<path id="Path_590" style="fill:url(#Path_590_00000081643218999246874000000006236011554782111885_);" d="M237.6,128.9
		c-1,0.6-1.4,1.9-0.8,2.9c0.4,0.6,1,1,1.7,1.1c6.6,0.4,19.2,0.3,21.1-1.1c3-2.3,1.8-22.7-5.1-30.8c1.1,9,4.8,19.2,1.9,22.8
		C254.7,126,243,125.8,237.6,128.9z"/>
	<path id="Path_591" class="st15" d="M236.5,131.1c0,0,0.3,2.5,1,3s15.6,0.9,22.6-2.5c0.9-0.3,1-3.7,1-3.7S247.6,131.3,236.5,131.1z
		"/>
	
		<linearGradient id="Path_592_00000011008188738485331850000016220196630865073576_" gradientUnits="userSpaceOnUse" x1="51.374" y1="623.9808" x2="52.374" y2="623.9808" gradientTransform="matrix(8.2264 0 0 -5.3025 -219.4439 3442.9836)">
		<stop  offset="0" style="stop-color:#8C68CD"/>
		<stop  offset="1" style="stop-color:#6F42C1"/>
	</linearGradient>
	<path id="Path_592" style="fill:url(#Path_592_00000011008188738485331850000016220196630865073576_);" d="M211.1,136.2
		c-0.1-1.3-0.1-2.5,0.2-3.8c0.4-1.5-1.3-0.7-2.1,0.6c-2.3,2.4-3.2,0.7-5.7,2.3c-2.3,1.5,7,1.6,7.3,1.6
		C211,137,211.1,136.4,211.1,136.2z"/>
	<g id="Group_241" transform="translate(195.401 135.38)">
		<path id="Path_593" class="st14" d="M8,0.1C7.5,0.1,6.9,0.3,6.3,0.4C4.1,1.2,1.8,1.5-0.5,1.5c-0.3,0-0.6,0.3-0.6,0.6c0,0,0,0,0,0
			c0,0.4,0.1,0.7,0.2,1.1C-0.4,4.5,3,3.5,6.6,2.8l0,0C6.3,1.4,7.6,0.4,8,0.1z"/>
		<path id="Path_594" class="st15" d="M8,0.1C7.6,0.4,6.3,1.4,6.6,2.8l0,0c3-0.6,5.6-0.9,7.4,0.4l1.5,1.1l0.2-3.5
			C13.2,0.2,10.6-0.1,8,0.1z"/>
	</g>
	<path id="Path_595" class="st8" d="M191.3,36.8c0,0-6.3,7.6-7.8,13.9c-0.1,0.3-0.1,0.6-0.2,1c1.2,0.1,1.4-0.6,1.8-1.1
		c1.2-1.7,2.4-6.4,7.3-6.3s4.6-4.4,2.8-4.5s-2.9,0.8-4.4,1.5c-1,0.5-1.4,0.4-1.2-0.2c0.5-0.7,1-1.3,1.7-1.8c1.4-1,3.1-1.7,4.8-2
		c2.9-0.7,3.2-2.8,1.8-2.8c-2,0.1-4,0.7-5.6,1.9c0.3-0.7,3.5-3.2,5.7-3.2c2.2,0,1.1-2.9-1-1.9c-0.3,0.2-0.6,0.3-0.9,0.5
		C194.4,33.4,192.8,35,191.3,36.8z"/>
	<path id="Path_596" class="st8" d="M221.3,35c4.3,2.3,24.5,11.9,25.9,47.4c0,3.1-1.5,5.8-3.1,8.3c-0.2,0.3-0.5,0.4-0.8,0.2
		c-0.2-0.1-0.3-0.4-0.3-0.6c0.9-4.7,1-9.5,0.2-14.2c-1.1-6.8-4.1-29.8-20.8-38.4C206.3,29.6,217,32.7,221.3,35z"/>
	<path id="Path_597" class="st33" d="M147.1,182.9l3.8,42.3c0.2,2.5,2.3,4.4,4.8,4.4h73.8c2.5,0,4.6-1.9,4.8-4.4l3.8-42.3
		c0.2-2.6-1.7-5-4.4-5.2c-0.1,0-0.3,0-0.4,0h-81.4c-2.7,0-4.8,2.2-4.8,4.8C147.1,182.6,147.1,182.8,147.1,182.9z"/>
	
		<linearGradient id="Path_598_00000059286150588397910860000006235828267849776568_" gradientUnits="userSpaceOnUse" x1="52.0924" y1="624.2983" x2="52.1264" y2="623.2293" gradientTransform="matrix(87.4678 0 0 -49.911 -4363.9009 31341.3516)">
		<stop  offset="0" style="stop-color:#F8F9FA"/>
		<stop  offset="1" style="stop-color:#989EA4"/>
	</linearGradient>
	<path id="Path_598" style="fill:url(#Path_598_00000059286150588397910860000006235828267849776568_);" d="M148.9,185.2l3.7,40.7
		c0.2,2.4,2.2,4.2,4.6,4.2h70.9c2.4,0,4.4-1.8,4.6-4.2l3.7-40.7c0.2-2.5-1.6-4.8-4.2-5c-0.1,0-0.3,0-0.4,0h-78.2
		c-2.6,0-4.6,2.1-4.6,4.6C148.9,184.9,148.9,185.1,148.9,185.2z"/>
</g>
</svg>
